<svg width="16" height="16" viewBox="0 0 24 24" fill="none" xmlns="http://www.w3.org/2000/svg" preserveAspectRatio="xMidYMid meet"><circle cx="12" cy="12" r="12" fill="url(#paint0_linear_MessengerChannel_7619_1719)"></circle><path fill-rule="evenodd" clip-rule="evenodd" d="M5 11.7277C5 8.13397 8.11522 5.22119 11.958 5.22119C15.8008 5.22119 18.916 8.13397 18.916 11.7277C18.916 15.3215 15.8008 18.2343 11.958 18.2343C11.2635 18.2343 10.5926 18.1391 9.9597 17.9617L7.58508 19.279V16.7886C6.00817 15.5961 5 13.7721 5 11.7277ZM7.77708 13.6454L9.65079 10.6474C9.98917 10.106 10.7189 9.97105 11.2285 10.3556L12.694 11.4614C12.8258 11.5608 13.0082 11.5578 13.1366 11.4542L15.1731 9.81011C15.4883 9.55573 15.9182 9.93534 15.7048 10.2795L13.7239 13.4747C13.3718 14.0426 12.5957 14.1618 12.0894 13.7257L10.7446 12.5673C10.6142 12.455 10.4225 12.4508 10.2873 12.5572L8.30465 14.1186C7.98785 14.3681 7.56336 13.9873 7.77708 13.6454Z" fill="white"></path><defs><linearGradient id="paint0_linear_MessengerChannel_7619_1719" x1="13.5" y1="27.5" x2="3.5" y2="-2.16672e-07" gradientUnits="userSpaceOnUse"><stop offset="0.1137" stop-color="#006DFF"></stop><stop offset="1" stop-color="#00C6FF"></stop></linearGradient></defs></svg>