<svg width="16" height="16" viewBox="0 0 24 24" fill="none" xmlns="http://www.w3.org/2000/svg" preserveAspectRatio="xMidYMid meet" class="text-secondary"><path d="M24 12C24 18.6274 18.6274 24 12 24C5.37258 24 0 18.6274 0 12C0 5.37258 5.37258 0 12 0C18.6274 0 24 5.37258 24 12Z" fill="url(#paint0_linear_WhatsAppChannel_7619_1726)"></path><path fill-rule="evenodd" clip-rule="evenodd" d="M5 11.5065C5 7.91278 8.11522 5 11.958 5C15.8008 5 18.916 7.91278 18.916 11.5065C18.916 15.1003 15.8008 18.0131 11.958 18.0131C11.2635 18.0131 10.5926 17.9179 9.9597 17.7405L7.58508 19.0578V16.5675C6.00817 15.3749 5 13.5509 5 11.5065ZM15.7569 12.9568C15.7548 12.9336 15.7529 12.9136 15.7521 12.897C15.7441 12.7389 15.6021 12.7147 15.6021 12.7147C15.6021 12.7147 14.4386 12.1511 14.1994 12.0415C13.9605 11.932 13.8388 12.1107 13.8388 12.1107C13.8388 12.1107 13.486 12.5566 13.3724 12.7024C13.363 12.7145 13.354 12.7264 13.3452 12.7381C13.2468 12.8683 13.1697 12.9702 12.8982 12.8808C12.6022 12.7834 12.0087 12.4639 11.5237 12.0294C11.0391 11.595 10.6684 11.0201 10.5632 10.8458C10.4578 10.6712 10.5794 10.562 10.5794 10.562C10.5794 10.562 10.8864 10.2082 11.0333 10.0187C11.1771 9.83334 11.0925 9.62678 11.0559 9.5377C11.0551 9.53575 11.0536 9.53202 11.0536 9.53202C11.0186 9.44684 10.5468 8.3386 10.4779 8.18234C10.4092 8.02594 10.2592 8 10.2592 8H9.69973C9.59967 8 9.40786 8.12164 9.40786 8.12164C8.83294 8.48961 8.73552 9.34836 8.71867 9.53373C8.70182 9.71909 8.68497 10.1125 8.98829 10.7753C9.29161 11.4379 10.0331 12.3368 10.9488 13.1908C11.8315 14.0141 13.1685 14.385 13.6436 14.5168C13.6612 14.5217 13.6776 14.5263 13.6928 14.5305C14.1175 14.6491 15.0143 14.4385 15.4359 13.9831C15.8133 13.5759 15.7749 13.1541 15.7569 12.9568Z" fill="white"></path><defs><linearGradient id="paint0_linear_WhatsAppChannel_7619_1726" x1="12" y1="32" x2="-4.5" y2="-8.19564e-07" gradientUnits="userSpaceOnUse"><stop stop-color="#1EBF5A"></stop><stop offset="0.922652" stop-color="#2CE979"></stop></linearGradient></defs></svg>